HIERARCHY
ROOT Hips
{
	OFFSET 0.00000 0.00000 0.00000
	CHANNELS 6 Xposition Yposition Zposition Zrotation Yrotation Xrotation 
	JOINT RightUpLegDummy
	{
		OFFSET 0 0 0
		CHANNELS 3 Zrotation Yrotation Xrotation
		JOINT RightUpLeg
		{
			OFFSET -3.52197 -3.41223 0.04002
			CHANNELS 3 Zrotation Yrotation Xrotation
			JOINT RightLeg
			{
				OFFSET 0.00006 -17.42390 1.60435
				CHANNELS 3 Zrotation Yrotation Xrotation
				JOINT RightFoot
				{
					OFFSET 0.06153 -16.50078 -1.63901
					CHANNELS 3 Zrotation Yrotation Xrotation
					JOINT RightToes
					{
						OFFSET 0.00298 -1.73825 3.34613
						CHANNELS 3 Zrotation Yrotation Xrotation
						End Site
						{
							OFFSET 0.00480 -0.05416 3.85043
						}
					}
				}
			}
		}
	}
	JOINT SpineDummy
	{
		OFFSET 0 0 0
		CHANNELS 3 Zrotation Yrotation Xrotation
		JOINT Spine
		{
			OFFSET 0.00000 4.68130 0.00000
			CHANNELS 3 Zrotation Yrotation Xrotation
			JOINT Spine1
			{
				OFFSET -0.00000 10.10138 0.05002
				CHANNELS 3 Zrotation Yrotation Xrotation
				JOINT HEadDummy
				{
					OFFSET 0 0 0
					CHANNELS 3 Zrotation Yrotation Xrotation
					JOINT Head
					{
						OFFSET -0.00000 3.43865 0.00438
						CHANNELS 3 Zrotation Yrotation Xrotation
						End Site
						{
							OFFSET -0.11417 5.02924 0.98962
						}
					}
				}
				JOINT LeftShoulder1Dummy
				{
					OFFSET 0 0 0
					CHANNELS 3 Zrotation Yrotation Xrotation
					JOINT LeftShoulder1
					{
						OFFSET 3.53937 -0.14262 -0.08662
						CHANNELS 3 Zrotation Yrotation Xrotation
						JOINT LeftArm
						{
							OFFSET 4.04833 -0.00133 0.12681
							CHANNELS 3 Zrotation Yrotation Xrotation
							JOINT LeftForeArm
							{
								OFFSET 10.33880 -0.01036 -0.55515
								CHANNELS 3 Zrotation Yrotation Xrotation
								JOINT LeftHand
								{
									OFFSET 8.69677 0.07543 0.40060
									CHANNELS 3 Zrotation Yrotation Xrotation
									End Site
									{
										OFFSET 5.28377 -0.21905 0.59205
									}
								}
							}
						}
					}
				}
				JOINT RightShoulderDummy
				{
					OFFSET 0 0 0
					CHANNELS 3 Zrotation Yrotation Xrotation
					JOINT RightShoulder
					{
						OFFSET -3.53937 -0.14262 -0.08660
						CHANNELS 3 Zrotation Yrotation Xrotation
						JOINT RightArm
						{
							OFFSET -4.04833 -0.00133 0.12683
							CHANNELS 3 Zrotation Yrotation Xrotation
							JOINT RightForeArm
							{
								OFFSET -10.37987 -0.01039 -0.55511
								CHANNELS 3 Zrotation Yrotation Xrotation
								JOINT RightHand
								{
									OFFSET -8.67398 0.07538 0.40058
									CHANNELS 3 Zrotation Yrotation Xrotation
									End Site
									{
										OFFSET -5.24810 -0.21916 0.59204
									}
								}
							}
						}
					}
				}
			}
		}
	}
	JOINT LeftUpLegDummy
	{
		OFFSET 0 0 0
		CHANNELS 3 Zrotation Yrotation Xrotation
		JOINT LeftUpLeg
		{
			OFFSET 3.52197 -3.41223 0.04002
			CHANNELS 3 Zrotation Yrotation Xrotation
			JOINT LeftLeg
			{
				OFFSET -0.00012 -17.42399 1.60337
				CHANNELS 3 Zrotation Yrotation Xrotation
				JOINT LeftFoot
				{
					OFFSET -0.09972 -16.50070 -1.63802
					CHANNELS 3 Zrotation Yrotation Xrotation
					JOINT LeftToes
					{
						OFFSET -0.01575 -1.73823 3.34611
						CHANNELS 3 Zrotation Yrotation Xrotation
						End Site
						{
							OFFSET 0.03150 -0.01868 3.85031
						}
					}
				}
			}
		}
	}
}
MOTION
Frames: 19
Frame Time: 0.033333
-0.0903 40.1189 -4.5882 -1.8377 -6.2941 -3.0751 0.0000 0.0000 0.0000 -0.4996 -2.4671 2.6485 -1.7807 -4.9317 3.3992 0.5098 -0.0517 -2.2023 0.0000 -0.0000 0.0000 0.0000 0.0000 0.0000 0.7310 -0.1377 2.3885 3.2329 -0.7754 0.2515 -0.0000 0.0000 -0.0000 -0.2507 -2.7681 -1.6337 -0.0000 0.0000 -0.0000 -34.3648 -2.7390 2.5269 -44.6117 -14.1451 -18.5103 -9.9834 5.0903 49.5781 14.6576 -4.0125 -1.1571 -0.0000 0.0000 -0.0000 34.6539 5.1439 3.5172 39.9666 5.7826 -16.5231 10.6854 -0.2036 24.8552 -12.7224 2.8813 -0.8843 0.0000 0.0000 0.0000 3.7358 2.9721 2.7268 3.2547 11.9866 6.9326 -0.8283 0.0664 -5.0001 0.0000 0.0000 -0.0000
-0.0871 40.1189 -4.5882 -1.8335 -6.3018 -3.0751 0.0000 0.0000 0.0000 -0.5035 -2.4671 2.6297 -1.7945 -4.9285 3.4135 0.5172 -0.0522 -2.2023 0.0000 -0.0000 0.0000 0.0000 0.0000 0.0000 0.6816 -0.1211 2.3436 3.2818 -0.7754 0.2898 -0.0000 0.0000 -0.0000 -0.4223 -2.7588 -1.5838 -0.0000 0.0000 -0.0000 -34.3648 -2.7506 2.5257 -44.6452 -14.1438 -18.5378 -9.9607 5.0888 49.6342 14.6381 -4.0553 -1.1606 -0.0000 0.0000 -0.0000 34.6318 5.1371 3.5125 39.9922 5.7642 -16.5293 10.6943 -0.1996 24.6306 -12.7582 2.5387 -0.8518 0.0000 0.0000 0.0000 3.7193 2.9585 2.7119 3.2710 12.0103 6.9478 -0.8283 0.0664 -5.0128 0.0000 0.0000 -0.0000
-0.0815 40.1189 -4.5882 -1.8232 -6.3103 -3.0751 0.0000 0.0000 0.0000 -0.5207 -2.4671 2.6204 -1.8003 -4.9185 3.4197 0.5271 -0.0528 -2.2023 0.0000 -0.0000 0.0000 0.0000 0.0000 0.0000 0.5917 -0.1181 2.2561 3.3407 -0.7843 0.4022 -0.0000 0.0000 -0.0000 -0.6154 -2.6155 -1.6182 -0.0000 0.0000 -0.0000 -34.3599 -2.7265 2.5166 -44.7777 -13.9831 -18.4564 -9.9920 5.0944 49.4347 14.4061 -3.9193 -1.1257 -0.0000 0.0000 -0.0000 34.5625 5.1234 3.5008 40.0690 5.8130 -16.5797 10.6863 -0.2808 24.4162 -12.7609 2.0698 -0.8038 0.0000 0.0000 0.0000 3.6916 2.9387 2.7001 3.2900 12.0397 6.9653 -0.8277 0.0663 -5.0271 0.0000 0.0000 -0.0000
-0.0741 40.1189 -4.5882 -1.8173 -6.3365 -3.0795 0.0000 0.0000 0.0000 -0.5370 -2.4671 2.6251 -1.7978 -4.8820 3.4040 0.5450 -0.0540 -2.1957 0.0000 -0.0000 0.0000 0.0000 0.0000 0.0000 0.5261 -0.1349 2.1811 3.3478 -0.8043 0.5086 -0.0000 0.0000 -0.0000 -0.6032 -2.4096 -1.7463 -0.0000 0.0000 -0.0000 -34.3766 -2.6828 2.5001 -44.8799 -13.8322 -18.3052 -10.0743 5.1049 49.0484 14.1522 -3.6800 -1.0774 -0.0000 0.0000 -0.0000 34.5886 5.1302 3.5059 40.0769 5.8760 -16.6194 10.6726 -0.4075 24.4254 -12.8181 1.8444 -0.7843 0.0000 0.0000 0.0000 3.6694 2.9273 2.6974 3.3040 12.0777 6.9793 -0.8121 0.0653 -5.0277 0.0000 0.0000 -0.0000
-0.0635 40.1189 -4.5882 -1.8333 -6.3962 -3.0871 0.0000 0.0000 0.0000 -0.5337 -2.4671 2.6398 -1.7956 -4.8217 3.3690 0.5609 -0.0551 -2.1601 0.0000 -0.0000 0.0000 0.0000 0.0000 0.0000 0.5116 -0.1397 2.1542 3.3249 -0.8051 0.5346 -0.0000 0.0000 -0.0000 -0.4580 -2.3332 -1.8604 -0.0000 0.0000 -0.0000 -34.4477 -2.6839 2.5050 -44.8594 -13.8686 -18.2206 -10.1349 5.1103 48.8396 14.1462 -3.5701 -1.0644 -0.0000 0.0000 -0.0000 34.7328 5.1584 3.5300 39.9858 5.8452 -16.6174 10.6729 -0.4915 24.6353 -12.9634 1.9957 -0.8093 0.0000 0.0000 0.0000 3.6697 2.9337 2.6977 3.3182 12.1277 7.0140 -0.7896 0.0639 -5.0336 0.0000 0.0000 -0.0000
-0.0500 40.1189 -4.5882 -1.8704 -6.4687 -3.1044 0.0000 0.0000 0.0000 -0.5236 -2.4685 2.6713 -1.7743 -4.7580 3.3272 0.5758 -0.0581 -2.1114 0.0000 -0.0000 0.0000 0.0000 0.0000 0.0000 0.5111 -0.1315 2.2049 3.3211 -0.7941 0.4856 -0.0000 0.0000 -0.0000 -0.3602 -2.4511 -1.9501 -0.0000 0.0000 -0.0000 -34.5147 -2.6956 2.5139 -44.8359 -14.0004 -18.2344 -10.1243 5.1065 48.9710 14.3018 -3.6294 -1.0835 -0.0000 0.0000 -0.0000 34.7999 5.1713 3.5412 39.9537 5.7803 -16.6364 10.6725 -0.5607 24.9010 -13.0416 2.3521 -0.8517 0.0000 0.0000 0.0000 3.6855 2.9423 2.7029 3.3485 12.1822 7.0796 -0.8050 0.0649 -5.0701 0.0000 0.0000 -0.0000
-0.0342 40.1189 -4.5902 -1.9049 -6.5273 -3.1418 0.0000 0.0000 0.0000 -0.5390 -2.5070 2.7201 -1.7152 -4.6755 3.2918 0.6076 -0.0625 -2.0858 0.0000 -0.0000 0.0000 0.0000 0.0000 0.0000 0.4854 -0.1528 2.3620 3.3169 -0.8112 0.4026 -0.0000 0.0000 -0.0000 -0.2931 -2.6380 -2.0913 -0.0000 0.0000 -0.0000 -34.4634 -2.6232 2.4814 -44.9750 -14.0780 -18.2507 -10.0678 5.0985 49.2680 14.3857 -3.7498 -1.1041 -0.0000 0.0000 -0.0000 34.6917 5.1516 3.5236 40.0877 5.8107 -16.6949 10.6584 -0.6366 25.0359 -12.9368 2.5370 -0.8640 0.0000 0.0000 0.0000 3.6828 2.9235 2.7241 3.4092 12.2542 7.1445 -0.8769 0.0695 -5.1223 0.0000 0.0000 -0.0000
-0.0141 40.1178 -4.6000 -1.9237 -6.5968 -3.2024 0.0000 0.0000 0.0000 -0.5834 -2.5648 2.7638 -1.6448 -4.5337 3.2851 0.6416 -0.0672 -2.0690 0.0000 -0.0000 0.0000 0.0000 0.0000 0.0000 0.4314 -0.2167 2.6156 3.2874 -0.8654 0.2954 -0.0000 0.0000 -0.0000 -0.1382 -2.7497 -2.2951 -0.0000 0.0000 -0.0000 -34.2919 -2.4999 2.4211 -45.2263 -14.1530 -18.1767 -10.0447 5.0919 49.4971 14.4728 -3.8870 -1.1272 -0.0000 0.0000 -0.0000 34.5853 5.1288 3.5050 40.2534 5.8607 -16.6809 10.6592 -0.5403 24.9051 -12.7749 2.3870 -0.8373 0.0000 0.0000 0.0000 3.6520 2.8880 2.7575 3.4856 12.3621 7.2090 -0.9438 0.0738 -5.1674 0.0000 0.0000 -0.0000
0.0142 40.1118 -4.6215 -1.9417 -6.7443 -3.2771 0.0000 0.0000 0.0000 -0.6208 -2.5805 2.7265 -1.6182 -4.3388 3.4106 0.6497 -0.0701 -2.0598 0.0000 -0.0000 0.0000 0.0000 0.0000 0.0000 0.3245 -0.2849 2.9287 3.3222 -0.9336 0.1457 -0.0000 0.0000 -0.0000 0.0758 -2.7899 -2.5412 -0.0000 0.0000 -0.0000 -34.1521 -2.4669 2.3993 -45.4030 -14.3233 -18.0242 -10.0963 5.0887 49.5871 14.8181 -4.0088 -1.1699 -0.0000 0.0000 -0.0000 34.6432 5.1332 3.5119 40.2625 5.7326 -16.5401 10.6990 -0.0618 24.4643 -12.7222 2.1644 -0.8110 0.0000 0.0000 0.0000 3.6306 2.8921 2.7435 3.5482 12.5010 7.3900 -0.9511 0.0743 -5.2457 0.0000 0.0000 -0.0000
0.0515 40.0919 -4.6635 -1.9652 -7.0085 -3.3538 0.0000 0.0000 0.0000 -0.6227 -2.4812 2.4700 -1.6772 -4.1490 3.8861 0.6622 -0.0724 -2.1630 0.0000 -0.0000 0.0000 0.0000 0.0000 0.0000 0.0994 -0.3480 3.3378 3.5246 -1.0231 -0.0745 -0.0000 0.0000 -0.0000 0.3279 -2.9393 -2.8992 -0.0000 0.0000 -0.0000 -34.1403 -2.5437 2.4294 -45.4946 -14.4937 -17.8986 -10.1564 5.0882 49.5783 15.3702 -4.0050 -1.2147 -0.0000 0.0000 -0.0000 34.7667 5.1533 3.5309 40.1537 5.4611 -16.4370 10.7315 0.7307 23.7122 -12.7168 2.1512 -0.8093 0.0000 0.0000 0.0000 3.6348 2.9530 2.5862 3.6212 12.6831 7.8486 -0.9420 0.0737 -5.4266 0.0000 0.0000 -0.0000
0.0977 40.0545 -4.7389 -1.9678 -7.3786 -3.4506 0.0000 0.0000 0.0000 -0.6099 -2.1839 1.9161 -1.8281 -4.0285 4.8601 0.7112 -0.0760 -2.4463 0.0000 -0.0000 0.0000 0.0000 0.0000 0.0000 -0.2646 -0.4538 3.9850 3.8242 -1.1697 -0.4025 -0.0000 0.0000 -0.0000 0.8175 -3.3966 -3.4580 -0.0000 0.0000 -0.0000 -34.1540 -2.6109 2.4572 -45.6781 -14.5536 -17.9255 -10.1044 5.0904 49.5246 15.8292 -3.8622 -1.2340 -0.0000 0.0000 -0.0000 34.8076 5.1635 3.5384 40.1226 5.2869 -16.5374 10.6914 1.6083 22.7145 -12.5988 2.2421 -0.8108 0.0000 0.0000 0.0000 3.6070 3.0019 2.2622 3.7934 12.9755 8.6213 -0.9860 0.0765 -5.7089 0.0000 0.0000 -0.0000
0.1560 40.0051 -4.8495 -1.9315 -7.8594 -3.6309 0.0000 0.0000 0.0000 -0.6324 -1.6188 1.2044 -2.0218 -4.0201 6.1696 0.7391 -0.0781 -2.7556 0.0000 -0.0000 0.0000 0.0000 0.0000 0.0000 -0.7129 -0.6177 4.9781 4.0820 -1.3685 -0.8442 -0.0000 0.0000 -0.0000 1.6800 -4.1113 -4.2086 -0.0000 0.0000 -0.0000 -34.0820 -2.6383 2.4637 -45.9884 -14.6731 -18.1155 -9.9239 5.0943 49.4641 16.1435 -3.7658 -1.2467 -0.0000 0.0000 -0.0000 34.8116 5.1653 3.5381 40.2220 5.2679 -16.6784 10.6131 2.5502 21.7309 -12.3755 2.2337 -0.7951 0.0000 0.0000 0.0000 3.4863 2.9690 1.9001 4.1260 13.4426 9.5750 -1.0827 0.0827 -6.0211 0.0000 0.0000 -0.0000
0.2325 39.9525 -4.9807 -1.8839 -8.5259 -3.9301 0.0000 0.0000 0.0000 -0.7062 -0.8001 0.5650 -2.1696 -4.0915 7.4624 0.7212 -0.0775 -2.8997 0.0000 -0.0000 0.0000 0.0000 0.0000 0.0000 -1.2202 -0.7770 6.2258 4.3498 -1.5729 -1.3108 -0.0000 0.0000 -0.0000 2.7011 -4.9442 -5.1278 -0.0000 0.0000 -0.0000 -34.0038 -2.7051 2.4856 -46.2306 -15.1436 -18.2819 -9.7581 5.0979 49.4098 16.5367 -3.8508 -1.2899 -0.0000 0.0000 -0.0000 34.8768 5.1634 3.5444 40.2921 5.2479 -16.4647 10.6323 3.6943 21.0899 -12.1377 2.2088 -0.7769 0.0000 0.0000 0.0000 3.2913 2.8693 1.6633 4.5967 14.1218 10.5359 -1.2103 0.0909 -6.3123 0.0000 0.0000 -0.0000
0.3294 39.8996 -5.1184 -1.8522 -9.4879 -4.2485 0.0000 0.0000 0.0000 -0.8082 0.2571 -0.0340 -2.2174 -4.1547 8.6110 0.7706 -0.0814 -2.9392 0.0000 -0.0000 0.0000 0.0000 0.0000 0.0000 -1.8379 -0.8800 7.4611 4.7906 -1.7660 -1.6659 -0.0000 0.0000 -0.0000 3.6305 -5.9159 -6.2294 -0.0000 0.0000 -0.0000 -34.0147 -2.7857 2.5185 -46.3230 -15.9456 -18.1686 -9.7640 5.0993 49.3602 17.0416 -4.0316 -1.3561 -0.0000 0.0000 -0.0000 34.9481 5.1609 3.5499 40.2326 5.2137 -15.6092 10.8077 5.0128 20.6849 -11.8784 2.2756 -0.7662 0.0000 0.0000 0.0000 3.0611 2.7486 1.5104 5.1893 15.1016 11.4585 -1.3861 0.0971 -6.5851 0.0000 0.0000 -0.0000
0.4469 39.8422 -5.2644 -1.8103 -10.8316 -4.3838 0.0000 0.0000 0.0000 -0.9648 1.6820 -0.9109 -2.1633 -4.2055 9.7683 0.9173 -0.0910 -3.0268 0.0000 -0.0000 0.0000 0.0000 0.0000 0.0000 -2.5735 -0.9463 8.4498 5.3623 -1.9597 -1.8809 -0.0000 0.0000 -0.0000 4.5365 -6.8043 -7.4236 -0.0000 0.0000 -0.0000 -34.0103 -2.7555 2.5062 -46.4529 -16.7109 -17.6851 -9.9719 5.0989 49.2912 17.3905 -4.2075 -1.4101 -0.0000 0.0000 -0.0000 34.9231 5.1581 3.5466 40.2007 5.3070 -13.9783 10.9729 6.3902 19.8201 -11.5824 2.3003 -0.7488 0.0000 0.0000 0.0000 2.7705 2.6059 1.1808 5.9582 16.5179 12.4448 -1.6059 0.1041 -6.8460 0.0000 0.0000 -0.0000
0.5872 39.7788 -5.4255 -1.7313 -12.6380 -4.2279 0.0000 0.0000 0.0000 -1.2392 3.4303 -2.2148 -1.9796 -4.1156 10.9180 0.9979 -0.0962 -3.0953 0.0000 -0.0000 0.0000 0.0000 0.0000 0.0000 -3.3164 -0.9834 9.1862 5.8401 -2.1119 -2.0984 -0.0000 0.0000 -0.0000 5.7244 -7.5848 -8.5036 -0.0000 0.0000 -0.0000 -33.8773 -2.6368 2.4504 -46.7273 -17.1353 -16.9887 -10.2937 5.0996 49.1396 17.4328 -4.4121 -1.4432 -0.0000 0.0000 -0.0000 34.8415 5.1469 3.5349 40.3814 5.4509 -11.9206 10.9297 7.8497 18.3149 -11.3239 2.2477 -0.7267 0.0000 0.0000 0.0000 2.4044 2.4547 0.5205 6.9268 18.4250 13.5630 -1.8172 0.1102 -7.0641 0.0000 0.0000 -0.0000
0.7490 39.7202 -5.5995 -1.6810 -15.0313 -3.8920 0.0000 0.0000 0.0000 -1.5405 4.9963 -3.6349 -1.5714 -3.3058 11.6698 1.0561 -0.0998 -3.0212 0.0000 -0.0000 0.0000 0.0000 0.0000 0.0000 -3.9627 -0.9149 9.8812 6.1763 -2.1265 -2.4727 -0.0000 0.0000 -0.0000 7.3375 -8.6876 -9.3727 -0.0000 0.0000 -0.0000 -33.7313 -2.6011 2.4272 -46.9490 -17.2414 -16.3264 -10.6271 5.1036 48.8646 17.3438 -4.6164 -1.4648 -0.0000 0.0000 -0.0000 34.8302 5.1393 3.5308 40.7049 5.4106 -9.4778 10.6007 9.5414 16.2564 -11.2014 2.3068 -0.7239 0.0000 0.0000 0.0000 2.0849 2.4064 -0.2573 8.0125 20.7903 14.6954 -1.9959 0.1156 -7.1743 0.0000 0.0000 -0.0000
0.9204 39.6839 -5.7799 -1.7972 -18.1226 -3.5837 0.0000 0.0000 0.0000 -1.6109 6.0132 -4.7425 -0.8897 -1.3140 11.7484 1.5182 -0.1290 -2.9609 0.0000 -0.0000 0.0000 0.0000 0.0000 0.0000 -4.5428 -0.6782 10.7380 6.5857 -1.9828 -2.9727 -0.0000 0.0000 -0.0000 9.1757 -10.0901 -10.1144 -0.0000 0.0000 -0.0000 -33.7191 -2.6955 2.4639 -46.9312 -17.2034 -15.8851 -10.8838 5.1093 48.5621 17.3157 -4.6546 -1.4677 -0.0000 0.0000 -0.0000 34.9349 5.1502 3.5445 40.9253 5.2815 -6.6923 10.1075 11.2035 13.9221 -11.2536 2.4845 -0.7433 0.0000 0.0000 0.0000 2.0078 2.5861 -0.7703 9.1548 23.5979 15.6799 -2.1726 0.1230 -7.1024 0.0000 0.0000 -0.0000
1.0865 39.6765 -5.9625 -2.1631 -21.8604 -3.3799 0.0000 0.0000 0.0000 -1.3453 6.5764 -5.4809 -0.1374 1.2233 11.4315 2.5471 -0.1918 -3.2368 0.0000 -0.0000 0.0000 0.0000 0.0000 0.0000 -5.1274 -0.3530 11.7255 7.2128 -1.8005 -3.4009 -0.0000 0.0000 -0.0000 11.0969 -11.6288 -10.7716 -0.0000 0.0000 -0.0000 -33.7553 -2.7832 2.5010 -46.7553 -17.1020 -15.7778 -10.9752 5.1123 48.4197 17.2536 -4.4867 -1.4384 -0.0000 0.0000 -0.0000 35.0952 5.1814 3.5714 40.9312 5.4688 -4.7790 9.8380 12.0440 12.5431 -11.4010 2.5811 -0.7621 0.0000 0.0000 0.0000 2.2466 2.9828 -0.8805 10.4289 26.7695 16.5683 -2.4034 0.1349 -6.8287 0.0000 0.0000 -0.0000
